<svg width="66" height="85" viewBox="0 0 66 85" fill="none" xmlns="http://www.w3.org/2000/svg"><path d="M3.653 84.551a3.564 3.564 0 01-2.583-1.125A3.947 3.947 0 010 80.708v-11.53c0-1.019.385-1.996 1.07-2.717a3.564 3.564 0 012.583-1.126c.969 0 1.898.405 2.583 1.126a3.947 3.947 0 011.07 2.717v11.53c0 1.02-.385 1.997-1.07 2.718a3.564 3.564 0 01-2.583 1.125zm32.877-3.843V53.805a3.947 3.947 0 00-1.07-2.717 3.563 3.563 0 00-2.583-1.126c-.969 0-1.898.405-2.583 1.126a3.947 3.947 0 00-1.07 2.717v26.903c0 1.02.385 1.997 1.07 2.718a3.564 3.564 0 002.583 1.125c.969 0 1.898-.404 2.583-1.125a3.947 3.947 0 001.07-2.718zM62.1 38.432c-.968 0-1.897.405-2.582 1.126a3.947 3.947 0 00-1.07 2.718v38.432c0 1.02.385 1.997 1.07 2.718A3.564 3.564 0 0062.1 84.55c.969 0 1.898-.404 2.583-1.125a3.947 3.947 0 001.07-2.718V42.276c0-1.02-.385-1.997-1.07-2.718a3.564 3.564 0 00-2.583-1.126zM63.497.296A3.466 3.466 0 0062.101 0H47.489c-.969 0-1.898.405-2.583 1.126a3.947 3.947 0 00-1.07 2.717c0 1.02.385 1.997 1.07 2.718a3.564 3.564 0 002.583 1.125h5.794L32.877 29.155l-12.03-12.656a3.564 3.564 0 00-2.582-1.125c-.969 0-1.898.405-2.583 1.125L1.07 31.872a3.953 3.953 0 00-1.025 2.703 3.946 3.946 0 001.07 2.685 3.566 3.566 0 002.551 1.125 3.559 3.559 0 002.57-1.079l12.029-12.655 12.03 12.655a3.564 3.564 0 002.582 1.126 3.56 3.56 0 002.582-1.126l22.989-24.185v6.095c0 1.02.385 1.997 1.07 2.718a3.564 3.564 0 002.583 1.125c.969 0 1.898-.404 2.583-1.125a3.947 3.947 0 001.07-2.718V3.843a3.989 3.989 0 00-.618-2.134 3.699 3.699 0 00-1.64-1.413z" fill="#fff"/></svg>