<svg width="73" height="56" viewBox="0 0 73 56" fill="none" xmlns="http://www.w3.org/2000/svg"><path d="M.411 49.575c0 3.284 2.682 5.95 5.988 5.95h59.88c3.305 0 5.987-2.666 5.987-5.95V27.762H.411v21.813zm23.952-8.428c0-.818.673-1.487 1.497-1.487h16.965c.824 0 1.497.67 1.497 1.487v4.958c0 .818-.673 1.487-1.497 1.487H25.86c-.824 0-1.497-.67-1.497-1.487v-4.958zm-15.968 0c0-.818.674-1.487 1.497-1.487h8.982c.823 0 1.497.67 1.497 1.487v4.958c0 .818-.674 1.487-1.497 1.487H9.892c-.823 0-1.497-.67-1.497-1.487v-4.958zM72.266 5.95v5.949H.411v-5.95C.411 2.665 3.093 0 6.4 0h59.88c3.305 0 5.987 2.665 5.987 5.949z" fill="#fff"/></svg>