<svg width="74" height="63" viewBox="0 0 74 63" fill="none" xmlns="http://www.w3.org/2000/svg"><path d="M36.56 0c-5.749 0-10.41 4.66-10.41 10.41s4.661 10.41 10.41 10.41c5.75 0 10.41-4.66 10.41-10.41S42.31 0 36.56 0zm23.447 5.2a7.815 7.815 0 100 15.631 7.815 7.815 0 000-15.63zm-46.893 0a7.815 7.815 0 100 15.63 7.815 7.815 0 000-15.63zm7.816 26.016a5.21 5.21 0 015.21-5.177h20.841a5.21 5.21 0 015.21 5.21v15.633a15.713 15.713 0 01-.759 4.828c-2.034 6.27-7.923 10.803-14.871 10.803-7.014 0-12.95-4.62-14.928-10.983a15.625 15.625 0 01-.703-4.648V31.216zm-5.21.034c0-1.899.507-3.678 1.394-5.21H5.299a5.21 5.21 0 00-5.21 5.21v13.027c0 7.193 5.832 13.025 13.026 13.025a12.99 12.99 0 004.879-.944 20.752 20.752 0 01-2.274-9.476V31.249zm41.682 0v15.632c0 3.412-.82 6.633-2.274 9.476a12.99 12.99 0 004.879.944c7.194 0 13.025-5.832 13.025-13.025V31.249a5.21 5.21 0 00-5.21-5.21H56.007a10.37 10.37 0 011.395 5.21z" fill="#fff"/></svg>