<svg width="80" height="80" viewBox="0 0 80 80" fill="none" xmlns="http://www.w3.org/2000/svg"><path d="M9.33 61.815h6.624a2.208 2.208 0 002.207-2.208V35.323a2.208 2.208 0 00-2.207-2.208h-2.208v-2.208a26.492 26.492 0 1152.984 0v2.208h-2.208a2.208 2.208 0 00-2.208 2.208v24.284a2.208 2.208 0 002.208 2.208h2.01a13.246 13.246 0 01-13.048 11.038h-4.415a5.52 5.52 0 00-5.41-4.415h-6.622a5.52 5.52 0 100 11.038h6.623a5.54 5.54 0 004.415-2.208h5.409A17.661 17.661 0 0070.99 61.815h.154a8.83 8.83 0 008.83-8.831V41.946a8.83 8.83 0 00-8.83-8.831v-2.208a30.907 30.907 0 10-61.814 0v2.208a8.83 8.83 0 00-8.83 8.83v11.039a8.83 8.83 0 008.83 8.83zM43.55 75.06h-6.624a1.104 1.104 0 010-2.208h6.623a1.104 1.104 0 110 2.208zm32.01-33.115v11.038a4.416 4.416 0 01-4.415 4.415H66.73V37.53h4.415a4.415 4.415 0 014.416 4.416zm-70.645 0a4.415 4.415 0 014.416-4.416h4.415V57.4H9.331a4.415 4.415 0 01-4.416-4.416V41.946z" fill="#fff"/><path d="M40.238 64.022a13.113 13.113 0 0010.619-5.32 2.215 2.215 0 00-.486-3.09 2.213 2.213 0 00-3.09.485 8.83 8.83 0 01-14.085 0 2.213 2.213 0 00-3.577 2.605 13.112 13.112 0 0010.619 5.32zM60.52 28.76v-.827c0-.237 0-.783-.119-1.167-.118-.383-.103-.752-.177-1.121a20.223 20.223 0 00-1.978-5.698 23.418 23.418 0 00-.752-1.3c-.266-.427-.665-1.018-.96-1.372a20.222 20.222 0 00-4.222-4.251l-.501-.354-.547-.384-.132-.104-.133-.088h-.207l-1.063-.605h-.074a20.074 20.074 0 00-5.402-1.978h-.251c-.502-.104-1.004-.177-1.476-.251h-2.524a20.665 20.665 0 00-10.26 38.187l.266.162.827.428a21.08 21.08 0 004.59 1.594c1.456.317 2.94.475 4.43.473h.22a1.476 1.476 0 001.255-1.476 1.476 1.476 0 00-1.476-1.477 17.537 17.537 0 01-8.443-2.14 16.916 16.916 0 01-1.107-.664 17.713 17.713 0 01-8.163-14.909 1.8 1.8 0 010-.28c.004-1.258.153-2.511.443-3.735.335-1.367.83-2.69 1.476-3.941a18.356 18.356 0 012.096-3.262 17.973 17.973 0 012.79-2.731 17.401 17.401 0 013.66-2.214 17.71 17.71 0 017.248-1.55c.28-.015.561-.015.842 0 .43.017.858.057 1.284.118.213.014.425.044.634.088.215.024.427.064.635.119h.148a17.607 17.607 0 017.203 3.336 17.82 17.82 0 013.41 3.498c.268.349.514.714.738 1.092.181.272.349.553.502.842.063.093.117.192.162.295a17.198 17.198 0 011.89 5.373v.148c.06.302.1.607.118.915.057.42.091.845.103 1.27v.516a1.476 1.476 0 102.952 0c.045-.207.045-.399.045-.576z" fill="#fff"/><path d="M34.304 27.71a38.429 38.429 0 01-1.904 1.757l-2.775 3.056a1.47 1.47 0 00-.472.664c-.067.17-.102.35-.104.531v1.004a.87.87 0 00.222.59.799.799 0 00.575.252h8.532a.737.737 0 00.59-.266.885.885 0 00.207-.576v-1.387a.856.856 0 00-.22-.606.738.738 0 00-.577-.236h-4.28l1.948-2.184a15.808 15.808 0 001.476-1.477c.416-.473.75-1.011.99-1.594a4.715 4.715 0 00.339-1.83 5.12 5.12 0 00-.473-2.332 4.088 4.088 0 00-1.609-1.639 5.24 5.24 0 00-2.627-.59c-.7-.01-1.393.125-2.037.398a4.74 4.74 0 00-1.476 1.078 4.43 4.43 0 00-.96 1.476 4.844 4.844 0 00-.34 1.771.723.723 0 00.193.517.71.71 0 00.546.25h1.58a.991.991 0 00.516-.162.87.87 0 00.369-.605c.044-.323.139-.636.28-.93a1.476 1.476 0 011.388-.841 1.3 1.3 0 011.092.413c.252.346.378.768.355 1.196-.003.358-.1.71-.28 1.018-.288.48-.646.913-1.064 1.285zm15.766 1.817h-1.211V21.91a.826.826 0 00-.222-.576.782.782 0 00-.575-.265h-1.934a1.152 1.152 0 00-.974.502l-5.21 8.015a1.254 1.254 0 00-.222.443c-.02.122-.02.246 0 .369v1.343a.886.886 0 00.133.65.797.797 0 00.59.265h5.314v2.14a.93.93 0 00.207.59.796.796 0 00.575.252h1.476a.738.738 0 00.694-.295.798.798 0 00.222-.576v-2.185h1.225a.74.74 0 00.575-.265.826.826 0 00.222-.576v-1.373a.841.841 0 00-.207-.59.782.782 0 00-.679-.251zm-4.311-3.971V29.6h-2.583l2.583-4.044zm1.328 20.12c-.804.354-1.633.65-2.48.886a1.489 1.489 0 00.384 2.952c.132.014.266.014.398 0a21.718 21.718 0 002.953-1.034 1.534 1.534 0 00.775-2.03 1.536 1.536 0 00-2.03-.774zM58.778 32.98a1.478 1.478 0 00-1.816 1.034 19.19 19.19 0 01-.87 2.495 1.476 1.476 0 00.767 1.933c.181.082.378.122.576.118a1.476 1.476 0 001.358-.885c.417-.956.757-1.943 1.018-2.953a1.477 1.477 0 00-1.033-1.741zm-5.447 7.987a17.012 17.012 0 01-1.845 1.874 1.476 1.476 0 00.974 2.584c.36 0 .706-.132.975-.37a20.098 20.098 0 002.155-2.184 1.476 1.476 0 00-1.255-2.424 1.478 1.478 0 00-1.004.52z" fill="#fff"/></svg>